USFL
nRows=244
nColumns=2
inDegrees=yes
endheader
time	tib_ant_r	
2.56149	 71.756746	
2.59476	 71.720375	
2.62802	 71.702661	
2.66129	 71.730926	
2.69456	 71.722412	
2.72782	 71.717437	
2.76109	 71.746078	
2.79435	 71.727043	
2.82762	 71.738599	
2.86089	 71.789392	
2.89415	 71.804289	
2.92742	 71.764290	
2.96069	 71.775653	
2.99395	 71.802937	
3.02722	 71.802132	
3.06048	 71.799452	
3.09375	 71.801553	
3.12702	 71.832856	
3.16028	 71.801990	
3.19355	 71.814838	
3.22681	 71.848464	
3.26008	 71.810501	
3.29335	 71.833928	
3.32661	 71.852968	
3.35988	 71.927798	
3.39315	 71.920823	
3.42641	 71.900728	
3.45968	 71.906951	
3.49294	 71.908344	
3.52621	 71.905171	
3.55948	 71.914032	
3.59274	 71.926051	
3.62601	 71.916512	
3.65927	 71.798458	
3.69254	 71.829553	
3.72581	 71.804601	
3.75907	 71.788353	
3.79234	 71.799340	
3.8256	 71.740373	
3.85887	 71.735097	
3.89214	 71.689196	
3.9254	 71.700957	
3.95867	 71.669864	
3.99194	 71.685708	
4.0252	 71.669324	
4.05847	 71.657478	
4.09173	 71.678658	
4.125	 71.658140	
4.15827	 71.653947	
4.19153	 71.641090	
4.2248	 71.637558	
4.25806	 71.628486	
4.29133	 71.615441	
4.3246	 71.618111	
4.35786	 71.618222	
4.39113	 71.576493	
4.4244	 71.570607	
4.45766	 71.607523	
4.49093	 71.554015	
4.52419	 71.563179	
4.55746	 71.547007	
4.59073	 71.515458	
4.62399	 71.493750	
4.65726	 71.483286	
4.69052	 71.457625	
4.72379	 71.470881	
4.75706	 71.529562	
4.79032	 71.309088	
4.82359	 71.196146	
4.85685	 70.714697	
4.89012	 70.111466	
4.92339	 70.032023	
4.95665	 70.338969	
4.98992	 70.631229	
5.02319	 71.026622	
5.05645	 71.326588	
5.08972	 71.493211	
5.12298	 71.067038	
5.15625	 70.424747	
5.18952	 63.174561	
5.22278	 62.720831	
5.25605	 62.367451	
5.28931	 62.072089	
5.32258	 61.741385	
5.35585	 61.371126	
5.38911	 61.166668	
5.42238	 61.112887	
5.45565	 60.858183	
5.48891	 60.784547	
5.52218	 60.493237	
5.55544	 60.276223	
5.58871	 60.101515	
5.62198	 59.947702	
5.65524	 59.878042	
5.68851	 59.879893	
5.72177	 59.701239	
5.75504	 59.518697	
5.78831	 59.451073	
5.82157	 59.424684	
5.85484	 59.419608	
5.8881	 59.403972	
5.92137	 59.502564	
5.95464	 59.534844	
5.9879	 59.602310	
6.02117	 59.853980	
6.05444	 59.777295	
6.0877	 59.790604	
6.12097	 59.866256	
6.15423	 59.928096	
6.1875	 59.756581	
6.22077	 59.748126	
6.25403	 59.758528	
6.2873	 59.692128	
6.32056	 59.707462	
6.35383	 59.982022	
6.3871	 60.171847	
6.42036	 59.850956	
6.45363	 59.689220	
6.4869	 59.762533	
6.52016	 57.573344	
6.55343	 57.447755	
6.58669	 57.410808	
6.61996	 57.476636	
6.65323	 57.437239	
6.68649	 57.218477	
6.71976	 57.342506	
6.75302	 57.484805	
6.78629	 57.280217	
6.81956	 57.142430	
6.85282	 57.257763	
6.88609	 57.124960	
6.91935	 57.117538	
6.95262	 57.310854	
6.98589	 57.096992	
7.01915	 57.013482	
7.05242	 56.997585	
7.08569	 56.875899	
7.11895	 56.888274	
7.15222	 56.800421	
7.18548	 56.770302	
7.21875	 56.699449	
7.25202	 56.686627	
7.28528	 56.791822	
7.31855	 56.581660	
7.35181	 56.343420	
7.38508	 56.455774	
7.41835	 56.619462	
7.45161	 56.421250	
7.48488	 56.368864	
7.51815	 56.493824	
7.55141	 56.418440	
7.58468	 56.393205	
7.61794	 56.525283	
7.65121	 56.395880	
7.68448	 56.271503	
7.71774	 56.342331	
7.75101	 56.277814	
7.78427	 56.237141	
7.81754	 56.182399	
7.85081	 56.196586	
7.88407	 56.277606	
7.91734	 56.236302	
7.9506	 56.246264	
7.98387	 56.242775	
8.01714	 56.088013	
8.0504	 56.078982	
8.08367	 56.112522	
8.11694	 56.073284	
8.1502	 56.006275	
8.18347	 56.078744	
8.21673	 56.119937	
8.25	 56.102654	
8.28327	 55.977565	
8.31653	 56.093442	
8.3498	 56.003802	
8.38306	 55.885718	
8.41633	 55.828879	
8.4496	 55.943121	
8.48286	 55.975929	
8.51613	 55.932405	
8.5494	 55.917065	
8.58266	 55.930016	
8.61593	 55.776467	
8.64919	 55.756913	
8.68246	 55.984334	
8.71573	 55.765963	
8.74899	 55.822192	
8.78226	 56.010685	
8.81552	 55.951374	
8.84879	 55.861318	
8.88206	 55.926512	
8.91532	 55.787891	
8.94859	 55.683608	
8.98185	 55.904383	
9.01512	 55.956136	
9.04839	 56.079771	
9.08165	 55.890886	
9.11492	 55.981303	
9.14819	 56.251143	
9.18145	 56.141923	
9.21472	 56.146341	
9.24798	 56.158324	
9.28125	 56.032962	
9.31452	 55.911921	
9.34778	 56.125309	
9.38105	 56.503870	
9.41431	 56.805241	
9.44758	 56.788847	
9.48085	 57.114961	
9.51411	 57.410994	
9.54738	 57.708338	
9.58065	 58.065520	
9.61391	 58.481895	
9.64718	 58.867959	
9.68044	 59.279917	
9.71371	 59.706475	
9.74698	 59.997526	
9.78024	 60.206615	
9.81351	 60.495182	
9.84677	 60.684392	
9.88004	 60.923136	
9.91331	 61.203431	
9.94657	 61.199896	
9.97984	 61.522319	
10.0131	 61.820931	
10.0464	 62.256576	
10.0796	 62.649661	
10.1129	 62.695788	
10.1462	 63.271574	
10.1794	 63.714821	
10.2127	 64.244403	
10.246	 64.579819	
10.2792	 65.054690	
10.3125	 65.271697	
10.3458	 65.689763	
10.379	 66.187948	
10.4123	 66.709956	
10.4456	 66.955343	
10.4788	 67.301045	
10.5121	 67.535629	
10.5454	 67.988122	
10.5786	 68.271574	
10.6119	 68.368094	
10.6452	 68.648244	
